HIERARCHY
ROOT Hips
{
 OFFSET 0.000000 0.000000 0.000000
 CHANNELS 6 Xposition Yposition Zposition Yrotation Xrotation Zrotation
 JOINT Chest
 {
  OFFSET 0.000000 9.585900 0.002600
  CHANNELS 3 Yrotation Xrotation Zrotation
  JOINT Chest2
  {
   OFFSET 0.000000 9.601200 -0.005300
   CHANNELS 3 Yrotation Xrotation Zrotation
   JOINT Chest3
   {
    OFFSET 0.000000 9.561800 0.000000
    CHANNELS 3 Yrotation Xrotation Zrotation
    JOINT Chest4
    {
     OFFSET 0.000000 9.552100 0.000000
     CHANNELS 3 Yrotation Xrotation Zrotation
     JOINT Neck
     {
      OFFSET 0.000000 14.453000 0.000000
      CHANNELS 3 Yrotation Xrotation Zrotation
      JOINT Head
      {
       OFFSET 0.000000 8.936500 -0.011300
       CHANNELS 3 Yrotation Xrotation Zrotation
       End Site
       {
        OFFSET 0.000000 17.073600 -0.006000
       }
      }
     }
     JOINT RightCollar
     {
      OFFSET -2.921100 9.558500 0.000000
      CHANNELS 3 Yrotation Xrotation Zrotation
      JOINT RightShoulder
      {
       OFFSET -13.519700 0.000000 0.000000
       CHANNELS 3 Yrotation Xrotation Zrotation
       JOINT RightElbow
       {
        OFFSET 0.000000 -29.696600 0.000000
        CHANNELS 3 Yrotation Xrotation Zrotation
        JOINT RightWrist
        {
         OFFSET 0.000000 -24.004700 0.000000
         CHANNELS 3 Yrotation Xrotation Zrotation
         End Site
         {
          OFFSET 0.000000 -17.728500 0.000000
         }
        }
       }
      }
     }
     JOINT LeftCollar
     {
      OFFSET 2.921100 9.558500 0.000000
      CHANNELS 3 Yrotation Xrotation Zrotation
      JOINT LeftShoulder
      {
       OFFSET 13.519700 0.000000 0.000000
       CHANNELS 3 Yrotation Xrotation Zrotation
       JOINT LeftElbow
       {
        OFFSET 0.000000 -29.696600 0.000000
        CHANNELS 3 Yrotation Xrotation Zrotation
        JOINT LeftWrist
        {
         OFFSET 0.000000 -24.004700 0.000000
         CHANNELS 3 Yrotation Xrotation Zrotation
         End Site
         {
          OFFSET 0.000000 -17.728500 0.000000
         }
        }
       }
      }
     }
    }
   }
  }
 }
 JOINT RightHip
 {
  OFFSET -7.771700 -0.012900 -0.001300
  CHANNELS 3 Yrotation Xrotation Zrotation
  JOINT RightKnee
  {
   OFFSET 0.000000 -40.869800 0.001200
   CHANNELS 3 Yrotation Xrotation Zrotation
   JOINT RightAnkle
   {
    OFFSET 0.000000 -39.717900 0.002100
    CHANNELS 3 Yrotation Xrotation Zrotation
    JOINT RightToe
    {
     OFFSET 0.000000 -4.965400 11.033500
     CHANNELS 3 Yrotation Xrotation Zrotation
     End Site
     {
      OFFSET 0.000000 -1.423100 5.872300
     }
    }
   }
  }
 }
 JOINT LeftHip
 {
  OFFSET 7.771700 -0.012900 -0.001300
  CHANNELS 3 Yrotation Xrotation Zrotation
  JOINT LeftKnee
  {
   OFFSET 0.000000 -40.869800 0.001200
   CHANNELS 3 Yrotation Xrotation Zrotation
   JOINT LeftAnkle
   {
    OFFSET 0.000000 -39.717900 0.002100
    CHANNELS 3 Yrotation Xrotation Zrotation
    JOINT LeftToe
    {
     OFFSET 0.000000 -4.965400 11.033500
     CHANNELS 3 Yrotation Xrotation Zrotation
     End Site
     {
      OFFSET 0.000000 -1.423100 5.872300
     }
    }
   }
  }
 }
}
MOTION
Frames: 8
Frame Time: 0.008333
0.000000 85.388000 0.000000 0.000000 -5.767877 0.000000 0.000000 11.653817 0.000000 0.000000 -5.885947 0.000000 0.000000 -0.000000 0.000000 0.000000 -0.000000 0.000000 0.000000 12.528835 0.000000 0.000000 0.711642 0.000000 0.000000 -0.000000 0.000000 0.000000 0.000000 -90.000000 0.000000 -2.309062 0.000000 0.000000 2.309062 0.000000 0.000000 -0.000000 0.000000 0.000000 -0.000000 90.000000 0.000000 -2.309062 0.000000 0.000000 2.309062 0.000000 0.000000 8.520406 0.000000 0.000000 1.905762 0.000000 -0.000000 -4.658285 0.000000 0.000000 -0.000000 0.000000 0.000000 8.520406 0.000000 0.000000 1.905762 0.000000 -0.000000 -4.658285 0.000000 0.000000 -0.000000 0.000000
-20.725641 49.160567 28.287062 172.350814 -24.867280 -0.255069 0.176327 11.352143 1.816667 0.015741 6.491407 1.406909 0.045997 8.117754 1.762493 0.014589 6.487489 1.406422 -0.092507 17.233000 -2.421415 0.646896 -3.760119 -4.441527 3.589200 5.403187 -6.661139 1.130094 -19.663620 -10.168262 43.715585 -54.344680 -29.793344 14.816231 11.003911 -30.631923 -1.075795 2.821646 -1.267211 5.063113 -22.029094 -1.326755 -65.667102 -39.261235 39.425537 -8.581367 15.429026 37.400392 22.415049 -55.920447 -32.370471 -118.083459 73.025982 -106.291291 1.427011 -7.375353 1.594168 0.285550 -0.865728 0.126148 0.985942 -58.462118 14.258239 125.920358 82.823049 121.204092 -6.303175 -12.576241 1.933777 0.223917 0.631610 0.095670
-20.726696 49.160733 28.287372 172.345546 -24.865480 -0.254836 0.178950 11.349848 1.817630 0.018846 6.489530 1.407573 0.042853 8.116816 1.762316 0.018172 6.488073 1.405441 -0.090344 17.232489 -2.421037 0.646847 -3.757324 -4.439805 3.588456 5.404743 -6.660788 1.137028 -19.660168 -10.171547 43.718177 -54.349872 -29.791262 14.808370 11.012080 -30.642959 -1.082255 2.816000 -1.257337 5.071126 -22.020922 -1.331685 -65.665363 -39.261953 39.418984 -8.582269 15.431689 37.396030 22.413750 -55.920804 -32.373387 -118.084198 73.032489 -106.288043 1.439606 -7.377672 1.592183 0.276428 -0.861655 0.121965 0.985905 -58.463671 14.263383 125.909811 82.821986 121.193030 -6.306375 -12.574688 1.932213 0.226386 0.630552 0.097505
-20.728708 49.160831 28.287957 172.342705 -24.861487 -0.251644 0.180383 11.345440 1.815558 0.021467 6.488808 1.408209 0.052468 8.109218 1.761518 0.008896 6.492925 1.405420 -0.090770 17.234695 -2.419177 0.652416 -3.757617 -4.437775 3.589685 5.406621 -6.662851 1.150634 -19.656081 -10.178099 43.703189 -54.355556 -29.779918 14.802557 11.018849 -30.653362 -1.091376 2.813908 -1.248591 5.074669 -22.016705 -1.327818 -65.658917 -39.267455 39.406401 -8.582436 15.440901 37.400093 22.420497 -55.921495 -32.385228 -118.083960 73.038908 -106.283862 1.445871 -7.378771 1.590019 0.269475 -0.857507 0.120245 0.989628 -58.466076 14.260923 125.896300 82.822279 121.177395 -6.312802 -12.575541 1.936821 0.235340 0.631159 0.096357
-20.730706 49.161588 28.287262 172.336957 -24.866313 -0.247748 0.190551 11.349354 1.819455 0.019430 6.488593 1.405716 0.055110 8.105388 1.761927 0.021289 6.487019 1.406725 -0.099910 17.242395 -2.419025 0.649797 -3.754880 -4.435200 3.574523 5.414611 -6.666181 1.150278 -19.652554 -10.176067 43.698372 -54.356344 -29.772545 14.811163 11.013437 -30.655234 -1.117868 2.818218 -1.241095 5.079050 -22.016897 -1.327702 -65.650405 -39.268548 39.389858 -8.584262 15.444578 37.406179 22.424665 -55.915114 -32.385199 -118.078364 73.040368 -106.277068 1.443618 -7.379144 1.588468 0.273907 -0.854232 0.121567 1.001182 -58.458454 14.252212 125.910759 82.826530 121.192400 -6.306268 -12.584063 1.938688 0.233611 0.635796 0.097778
-20.732875 49.162445 28.286385 172.333499 -24.872529 -0.245047 0.194718 11.351934 1.817942 0.022308 6.489140 1.406570 0.053486 8.101738 1.764058 0.023364 6.487950 1.407371 -0.089969 17.243108 -2.416956 0.645499 -3.745492 -4.433909 3.566374 5.418052 -6.669496 1.157956 -19.650416 -10.176119 43.687146 -54.354461 -29.764022 14.811961 11.015786 -30.651464 -1.129135 2.820102 -1.235445 5.082422 -22.017412 -1.330277 -65.643696 -39.265061 39.379627 -8.587184 15.445535 37.409951 22.425344 -55.907221 -32.382128 -118.070360 73.040478 -106.269292 1.441824 -7.381826 1.589280 0.277947 -0.849747 0.122515 1.009573 -58.451016 14.242117 125.879657 82.816248 121.159510 -6.298302 -12.590006 1.944951 0.222658 0.637482 0.092808
-20.735732 49.162844 28.286417 172.326982 -24.872408 -0.238924 0.197466 11.348019 1.814266 0.025300 6.489191 1.407942 0.051146 8.097938 1.764066 0.025729 6.493526 1.406628 -0.089678 17.244215 -2.417003 0.668230 -3.732204 -4.435828 3.564340 5.419460 -6.670265 1.162930 -19.646243 -10.178188 43.681102 -54.355966 -29.762549 14.815351 11.014679 -30.654500 -1.136291 2.818855 -1.229793 5.088635 -22.014712 -1.335912 -65.644875 -39.259461 39.375977 -8.586377 15.444934 37.411978 22.442385 -55.905714 -32.393908 -118.066968 73.041857 -106.269076 1.449678 -7.374117 1.597833 0.266074 -0.852716 0.118441 1.021834 -58.450563 14.232532 125.881624 82.814903 121.160702 -6.297597 -12.590242 1.945253 0.226901 0.635746 0.095547
-20.738198 49.163450 28.285880 172.330114 -24.876296 -0.239632 0.191475 11.348766 1.812862 0.022595 6.481749 1.408567 0.053367 8.101876 1.763921 0.024680 6.489296 1.406444 -0.083205 17.251131 -2.416778 0.672549 -3.724323 -4.438086 3.568647 5.425244 -6.671297 1.185178 -19.642034 -10.190341 43.647509 -54.355785 -29.746131 14.815243 11.009470 -30.651471 -1.135904 2.828057 -1.228588 5.080564 -22.013978 -1.335612 -65.637128 -39.252392 39.371193 -8.580543 15.443825 37.417207 22.438690 -55.901820 -32.392869 -118.071960 73.044888 -106.276081 1.446757 -7.372921 1.600505 0.263277 -0.853698 0.118144 1.019997 -58.445754 14.229548 125.886752 82.816358 121.165608 -6.301649 -12.594250 1.942851 0.228127 0.637118 0.100540
